# xmcd CD database file
#
# Track frame offsets:
#	150
#	7001
#	42999
#	66317
#	89620
#	113399
#	133653
#	158312
#	186440
#	187520
#	216033
#
# Disc length: 2920 seconds
#
# Revision: 5
# Processed by: cddbd v1.5.1PL2 Copyright (c) Steve Scherf et al.
# Submitted via: CDex 1.60beta1
#
DISCID=8a0b660b
DTITLE=MPT. - BASTARD POP TERRORISTS VOL.2
DYEAR=2005
DGENRE=Hardcore
TTITLE0=Bad Looking
TTITLE1=Tear Drop
TTITLE2=Original Smile
TTITLE3=Boss On Parade(Microsampling Dream)
TTITLE4=Waiting For You
TTITLE5=Pretty Voice
TTITLE6=KOKE KILLERS
TTITLE7=Bye bye
TTITLE8=M/P/T
TTITLE9=Cherry(Remix)
TTITLE10=Outro(HG)
EXTD=YEAR: 2005
EXTT0=
EXTT1=
EXTT2=
EXTT3=
EXTT4=
EXTT5=
EXTT6=
EXTT7=
EXTT8=
EXTT9=
EXTT10=
PLAYORDER=
